<?xml version="1.0" encoding="UTF-8" standalone="no"?>
<svg width="1022px" height="1021px" viewBox="0 0 1022 1021" version="1.1" xmlns="http://www.w3.org/2000/svg" xmlns:xlink="http://www.w3.org/1999/xlink">
    <!-- Generator: Sketch 48.2 (47327) - http://www.bohemiancoding.com/sketch -->
    <title>astro-vatar</title>
    <desc>Created with Sketch.</desc>
    <defs>
        <rect id="path-1" x="0.767567568" y="0.230630631" width="1020.54054" height="1020.54054"></rect>
        <path d="M285.468598,475.302402 C442.910574,475.302402 570.542514,368.929643 570.542514,237.712195 C570.542514,106.494747 442.910574,0.121988 285.468598,0.121988 C128.026621,0.121988 0.394681,106.494747 0.394681,237.712195 C0.394681,368.929643 128.026621,475.302402 285.468598,475.302402 Z" id="path-3"></path>
        <path d="M285.468598,475.302402 C442.910574,475.302402 570.542514,368.929643 570.542514,237.712195 C570.542514,106.494747 442.910574,0.121988 285.468598,0.121988 C128.026621,0.121988 0.394681,106.494747 0.394681,237.712195 C0.394681,368.929643 128.026621,475.302402 285.468598,475.302402 Z" id="path-5"></path>
        <path d="M285.468598,475.302402 C442.910574,475.302402 570.542514,368.929643 570.542514,237.712195 C570.542514,106.494747 442.910574,0.121988 285.468598,0.121988 C128.026621,0.121988 0.394681,106.494747 0.394681,237.712195 C0.394681,368.929643 128.026621,475.302402 285.468598,475.302402 Z" id="path-7"></path>
        <path d="M285.468598,475.302402 C442.910574,475.302402 570.542514,368.929643 570.542514,237.712195 C570.542514,106.494747 442.910574,0.121988 285.468598,0.121988 C128.026621,0.121988 0.394681,106.494747 0.394681,237.712195 C0.394681,368.929643 128.026621,475.302402 285.468598,475.302402 Z" id="path-9"></path>
    </defs>
    <g id="Page-1" stroke="none" stroke-width="1" fill="none" fill-rule="evenodd">
        <g id="astro-vatar">
            <g id="Rectangle" fill="#FFFFFF" fill-rule="nonzero">
                <rect id="path-1" x="0.767567568" y="0.230630631" width="1020.54054" height="1020.54054"></rect>
            </g>
            <g id="head-body-Clipped">
                <mask id="mask-2" fill="white">
                    <use xlink:href="#path-1"></use>
                </mask>
                <g id="path-1"></g>
                <g id="head-body" mask="url(#mask-2)">
                    <g transform="translate(96.000000, 155.000000)" id="Group">
                        <g transform="translate(0.254054, 0.906306)">
                            <path d="M301.086605,69.3228773 C301.086605,69.3228773 330.722389,58.2563225 416.682571,58.9074951 C502.642753,59.5586677 525.506282,69.9606223 525.506282,69.9606223 C525.506282,69.9606223 562.701538,34.5254983 585.272337,19.1759838 C608.805335,2.08106231 619.261474,2.1381239 645.721377,2.1381239 C672.18128,2.1381239 681.537287,15.1313383 689.005943,23.1904207 C696.4746,31.2495031 704.552188,49.1567103 704.552188,59.5586663 C704.552188,69.9606223 706.436173,102.723931 706.436173,124.504599 C706.436173,146.285268 699.801853,166.253398 699.801853,166.253398 C699.801853,166.253398 740.721345,218.179264 759.847161,259.615904 C778.972978,301.052544 791.96575,358.711402 791.96575,389.346656 C791.96575,419.98191 787.955532,468.494163 755.127105,526.394691 C722.298678,584.295219 701.24512,595.610159 675.895423,614.749221 C650.545725,633.888283 635.63869,644.112341 635.63869,644.112341 C635.63869,644.112341 727.728573,683.566667 759.847161,716.255856 C791.96575,748.945045 833.437352,788.124944 833.437352,864.175725 L0.906102196,864.175725 C0.906102196,793.234319 47.0883555,743.132756 71.15627,716.255856 C126.067718,656.312444 198.247912,637.946355 198.247912,637.946355 C198.247912,637.946355 151.222289,606.730417 126.067718,580.999086 C100.913147,555.267755 65.7700906,526.394693 47.0883555,423.979563 C28.4066205,321.564434 71.15627,263.969353 71.15627,256.517806 C93.4747694,201.869776 120.156714,168.54928 120.156714,168.54928 C120.156714,168.54928 109.559295,105.855593 114.858005,68.8462469 C119.816923,50.4053478 123.574803,18.276428 141.287629,10.2072759 C159.000456,2.1381239 160.887808,-2.12134113 183.293777,2.11798458 C205.699746,6.3573103 235.042809,20.5622387 253.36458,31.8368998 C271.686351,43.1115608 301.086605,69.3228773 301.086605,69.3228773 Z" id="body" fill="#8D7360"></path>
                            <path d="M160.257757,22.1413998 C197.243194,22.1413998 269.91423,59.5105723 269.914223,80.8563804 C269.914215,102.202188 236.543968,141.052182 205.644435,158.025823 C174.744901,174.999464 150.38959,179.085233 140.945924,171.957973 C131.502257,164.830713 125.418729,121.915861 125.418729,101.098203 C125.418729,80.2805461 123.27232,22.1413998 160.257757,22.1413998 Z" id="Path-2" fill="#7D6556"></path>
                            <path d="M607.741006,29.7057671 C637.913021,33.1138885 706.573231,64.7573118 706.573224,85.0431695 C706.573217,105.329027 674.860007,142.24988 645.494825,158.380675 C616.129644,174.51147 592.983724,178.394356 584.008993,171.621008 C575.034263,164.847661 569.252819,124.063794 569.252819,104.279861 C569.252819,84.4959289 577.56899,26.2976457 607.741006,29.7057671 Z" id="Path-2-Copy" fill="#7D6556" transform="translate(637.913021, 102.181397) rotate(65.000000) translate(-637.913021, -102.181397) "></path>
                            <path d="M569.968602,864.516979 C569.968602,796.023381 532.026179,736.864865 435.540541,736.864865 C339.054902,736.864865 311.54645,817.335881 311.54645,864.516979 C311.54645,864.516979 569.968602,864.516979 569.968602,864.516979 Z" id="Oval" fill="#815D32"></path>
                            <g id="Mask" transform="translate(150.000000, 164.000000)" fill="#D0B18A">
                                <path d="M285.468598,475.302402 C442.910574,475.302402 570.542514,368.929643 570.542514,237.712195 C570.542514,106.494747 442.910574,0.121988 285.468598,0.121988 C128.026621,0.121988 0.394681,106.494747 0.394681,237.712195 C0.394681,368.929643 128.026621,475.302402 285.468598,475.302402 Z" id="path-3"></path>
                            </g>
                            <g id="Fill-1-Clipped" transform="translate(150.000000, 164.000000)">
                                <mask id="mask-4" fill="white">
                                    <use xlink:href="#path-3"></use>
                                </mask>
                                <g id="path-3"></g>
                                <path d="M-66.1387676,198.294083 C-66.7337946,218.372786 -81.6475243,234.220569 -99.4499027,233.694732 C-117.25574,233.168894 -131.20774,216.463164 -130.612713,196.387921 C-130.021146,176.309218 -124.600173,160.181218 -97.3015784,160.987272 C-70.0029838,161.793326 -65.5437405,178.21538 -66.1387676,198.294083" id="Fill-1" fill="#815C32" mask="url(#mask-4)"></path>
                            </g>
                            <g id="hair-Clipped" transform="translate(150.000000, 164.000000)">
                                <mask id="mask-6" fill="white">
                                    <use xlink:href="#path-5"></use>
                                </mask>
                                <g id="path-3"></g>
                                <path d="M63.962369,406.721323 C63.962369,406.721323 50.108347,324.51264 50.108347,294.098919 C50.108347,263.685197 43.527855,238.356653 53.745112,224.413534 C63.962369,210.470415 66.159231,201.716526 66.159231,201.716526 C66.159231,201.716526 67.659691,213.538304 77.459779,226.115306 C87.259868,238.692308 93.298715,248.503511 101.467137,244.012444 C109.63556,239.521376 103.445322,234.395921 109.413519,226.085097 C115.381716,217.774273 137.121562,213.286563 137.121562,213.286563 C137.121562,213.286563 160.745388,225.490987 197.614318,237.655133 C234.483247,249.819279 262.26194,255.743594 278.507944,255.743594 C294.753948,255.743594 305.798826,254.719846 310.714003,246.18749 C315.62918,237.655133 310.525611,245.724285 302.222611,229.505424 C293.919612,213.286563 299.696052,208.839131 299.696052,208.839131 C299.696052,208.839131 305.798826,201.686317 349.083386,219.670725 C392.367946,237.655133 411.076601,264.705589 411.076601,264.705589 C411.076601,264.705589 409.963037,268.750235 420.23748,276.201781 C430.511923,283.653328 431.376551,282.320776 439.289283,275.919831 C447.202016,269.518885 457.419279,237.225495 457.419279,237.225495 C457.419279,237.225495 458.189701,227.001436 467.441409,227.001436 C476.693117,227.001436 490.769186,251.26931 490.769186,251.26931 L496.902232,263.759042 C496.902232,263.759042 493.840736,270.126421 502.009178,270.126421 C510.177621,270.126421 526.363055,257.489002 526.363055,257.489002 C526.363055,257.489002 524.220002,337.193696 518.891034,350.851507 C513.562066,364.509319 535.106766,364.287787 535.106766,364.287787 L583.000368,257.489002 L562.125136,132.944124 C562.125136,132.944124 488.199319,43.02242 439.289283,20.885621 C389.950597,-1.445187 278.507944,-19.688385 278.507944,-19.688385 L129.037246,20.885621 L44.28145,89.124332 L-5.549966,187.256499 L3.695019,356.896658 L63.962369,406.721323 Z" id="hair" fill="#222120" mask="url(#mask-6)"></path>
                            </g>
                            <g id="eye-Clipped" transform="translate(150.000000, 164.000000)">
                                <mask id="mask-8" fill="white">
                                    <use xlink:href="#path-7"></use>
                                </mask>
                                <g id="path-3"></g>
                                <ellipse id="eye" fill="#222120" mask="url(#mask-8)" cx="185.563539" cy="334.380905" rx="25.8375151" ry="41.2453162"></ellipse>
                            </g>
                            <g id="eye-Clipped" transform="translate(150.000000, 164.000000)">
                                <mask id="mask-10" fill="white">
                                    <use xlink:href="#path-9"></use>
                                </mask>
                                <g id="path-3"></g>
                                <ellipse id="eye" fill="#222120" mask="url(#mask-10)" cx="398.292414" cy="334.380905" rx="25.8375151" ry="41.2453162"></ellipse>
                            </g>
                        </g>
                    </g>
                </g>
            </g>
        </g>
    </g>
</svg>